<mxfile host="65bd71144e">
    <diagram name="第 1 页" id="czv0dz-GBIxx080b_6wI">
        <mxGraphModel dx="1086" dy="1869" grid="1" gridSize="11" guides="1" tooltips="1" connect="1" arrows="1" fold="1" page="1" pageScale="1" pageWidth="827" pageHeight="1169" math="0" shadow="0">
            <root>
                <mxCell id="0"/>
                <mxCell id="1" parent="0"/>
                <mxCell id="lKGrQ2MK0r0M78TdMLY--1" value="需要備課資料的&lt;div&gt;老師&lt;/div&gt;&lt;div&gt;&lt;br&gt;&lt;/div&gt;" style="shape=umlActor;verticalLabelPosition=bottom;verticalAlign=top;html=1;" parent="1" vertex="1">
                    <mxGeometry x="30" y="-360" width="30" height="60" as="geometry"/>
                </mxCell>
                <mxCell id="lKGrQ2MK0r0M78TdMLY--4" value="Testing" style="shape=umlActor;verticalLabelPosition=bottom;verticalAlign=top;html=1;" parent="1" vertex="1">
                    <mxGeometry x="30" y="-260" width="30" height="60" as="geometry"/>
                </mxCell>
                <mxCell id="lKGrQ2MK0r0M78TdMLY--5" value="Fixing" style="shape=umlActor;verticalLabelPosition=bottom;verticalAlign=top;html=1;" parent="1" vertex="1">
                    <mxGeometry x="30" y="-160" width="30" height="60" as="geometry"/>
                </mxCell>
                <mxCell id="Dm8r0YIzHr2bbyU3Pss4-1" value="AI備課系統" style="shape=umlFrame;whiteSpace=wrap;html=1;pointerEvents=0;recursiveResize=0;container=1;collapsible=0;width=160;" parent="1" vertex="1">
                    <mxGeometry x="176" y="-385" width="594" height="605" as="geometry"/>
                </mxCell>
                <mxCell id="8fR5_x-3oUHtHIp3af_6-4" value="登入帳號" style="ellipse;html=1;whiteSpace=wrap;" parent="Dm8r0YIzHr2bbyU3Pss4-1" vertex="1">
                    <mxGeometry x="34" y="88" width="120" height="40" as="geometry"/>
                </mxCell>
                <mxCell id="8fR5_x-3oUHtHIp3af_6-3" value="&lt;div&gt;蒐集備課文本資料&lt;/div&gt;" style="ellipse;html=1;whiteSpace=wrap;" parent="Dm8r0YIzHr2bbyU3Pss4-1" vertex="1">
                    <mxGeometry x="220" y="92" width="120" height="40" as="geometry"/>
                </mxCell>
                <mxCell id="8fR5_x-3oUHtHIp3af_6-7" value="蒐集最新新聞" style="ellipse;html=1;whiteSpace=wrap;" parent="Dm8r0YIzHr2bbyU3Pss4-1" vertex="1">
                    <mxGeometry x="451" y="77" width="120" height="40" as="geometry"/>
                </mxCell>
                <mxCell id="8fR5_x-3oUHtHIp3af_6-8" value="蒐集內文相關資料" style="ellipse;html=1;whiteSpace=wrap;" parent="Dm8r0YIzHr2bbyU3Pss4-1" vertex="1">
                    <mxGeometry x="451" y="128" width="120" height="40" as="geometry"/>
                </mxCell>
                <mxCell id="2" value="註冊帳號" style="ellipse;html=1;whiteSpace=wrap;" parent="Dm8r0YIzHr2bbyU3Pss4-1" vertex="1">
                    <mxGeometry x="30" y="40" width="124" height="37" as="geometry"/>
                </mxCell>
                <mxCell id="3" value="選擇身分別" style="ellipse;html=1;whiteSpace=wrap;" parent="Dm8r0YIzHr2bbyU3Pss4-1" vertex="1">
                    <mxGeometry x="272" y="40" width="124" height="37" as="geometry"/>
                </mxCell>
                <mxCell id="4" value="&amp;lt;&amp;lt;include&amp;gt;&amp;gt;" style="endArrow=open;startArrow=none;endFill=0;startFill=0;endSize=8;html=1;verticalAlign=bottom;dashed=1;labelBackgroundColor=none;rounded=0;exitX=1;exitY=0.5;exitDx=0;exitDy=0;entryX=0;entryY=0.5;entryDx=0;entryDy=0;" parent="Dm8r0YIzHr2bbyU3Pss4-1" source="2" target="3" edge="1">
                    <mxGeometry width="160" relative="1" as="geometry">
                        <mxPoint x="260" y="321" as="sourcePoint"/>
                        <mxPoint x="239" y="59" as="targetPoint"/>
                    </mxGeometry>
                </mxCell>
                <mxCell id="9" value="Generalization" style="endArrow=block;html=1;rounded=0;align=center;verticalAlign=bottom;endFill=0;labelBackgroundColor=none;endSize=8;entryX=1;entryY=0.5;entryDx=0;entryDy=0;exitX=0;exitY=0.5;exitDx=0;exitDy=0;" parent="Dm8r0YIzHr2bbyU3Pss4-1" source="8fR5_x-3oUHtHIp3af_6-7" target="8fR5_x-3oUHtHIp3af_6-3" edge="1">
                    <mxGeometry relative="1" as="geometry">
                        <mxPoint x="198" y="200" as="sourcePoint"/>
                        <mxPoint x="203" y="260" as="targetPoint"/>
                        <Array as="points"/>
                    </mxGeometry>
                </mxCell>
                <mxCell id="10" value="" style="resizable=0;html=1;align=center;verticalAlign=top;labelBackgroundColor=none;" parent="9" connectable="0" vertex="1">
                    <mxGeometry relative="1" as="geometry"/>
                </mxCell>
                <mxCell id="11" value="Generalization" style="endArrow=block;html=1;rounded=0;align=center;verticalAlign=bottom;endFill=0;labelBackgroundColor=none;endSize=8;exitX=0;exitY=0.5;exitDx=0;exitDy=0;entryX=0.908;entryY=0.75;entryDx=0;entryDy=0;entryPerimeter=0;" parent="Dm8r0YIzHr2bbyU3Pss4-1" source="8fR5_x-3oUHtHIp3af_6-8" target="8fR5_x-3oUHtHIp3af_6-3" edge="1">
                    <mxGeometry relative="1" as="geometry">
                        <mxPoint x="261" y="141" as="sourcePoint"/>
                        <mxPoint x="143" y="209" as="targetPoint"/>
                        <Array as="points"/>
                    </mxGeometry>
                </mxCell>
                <mxCell id="12" value="" style="resizable=0;html=1;align=center;verticalAlign=top;labelBackgroundColor=none;" parent="11" connectable="0" vertex="1">
                    <mxGeometry relative="1" as="geometry"/>
                </mxCell>
                <mxCell id="14" value="建立雲端教室" style="ellipse;html=1;whiteSpace=wrap;" parent="Dm8r0YIzHr2bbyU3Pss4-1" vertex="1">
                    <mxGeometry x="30" y="308" width="120" height="40" as="geometry"/>
                </mxCell>
                <mxCell id="15" value="邀請學生" style="ellipse;html=1;whiteSpace=wrap;" parent="Dm8r0YIzHr2bbyU3Pss4-1" vertex="1">
                    <mxGeometry x="220" y="362" width="120" height="40" as="geometry"/>
                </mxCell>
                <mxCell id="16" value="&amp;lt;&amp;lt;include&amp;gt;&amp;gt;" style="endArrow=open;startArrow=none;endFill=0;startFill=0;endSize=8;html=1;verticalAlign=bottom;dashed=1;labelBackgroundColor=none;rounded=0;exitX=1;exitY=0.5;exitDx=0;exitDy=0;entryX=0;entryY=0.5;entryDx=0;entryDy=0;" parent="Dm8r0YIzHr2bbyU3Pss4-1" source="14" target="15" edge="1">
                    <mxGeometry width="160" relative="1" as="geometry">
                        <mxPoint x="154" y="231" as="sourcePoint"/>
                        <mxPoint x="272" y="231" as="targetPoint"/>
                        <mxPoint as="offset"/>
                    </mxGeometry>
                </mxCell>
                <mxCell id="18" value="建立備課資料" style="ellipse;html=1;whiteSpace=wrap;" parent="Dm8r0YIzHr2bbyU3Pss4-1" vertex="1">
                    <mxGeometry x="34" y="132" width="120" height="40" as="geometry"/>
                </mxCell>
                <mxCell id="19" value="&amp;lt;&amp;lt;include&amp;gt;&amp;gt;" style="endArrow=open;startArrow=none;endFill=0;startFill=0;endSize=8;html=1;verticalAlign=bottom;dashed=1;labelBackgroundColor=none;rounded=0;exitX=1;exitY=0.5;exitDx=0;exitDy=0;entryX=0;entryY=0.5;entryDx=0;entryDy=0;" parent="Dm8r0YIzHr2bbyU3Pss4-1" source="18" target="8fR5_x-3oUHtHIp3af_6-3" edge="1">
                    <mxGeometry width="160" relative="1" as="geometry">
                        <mxPoint x="165" y="69.5" as="sourcePoint"/>
                        <mxPoint x="283" y="69.5" as="targetPoint"/>
                    </mxGeometry>
                </mxCell>
                <mxCell id="20" value="查看推薦備課檔案" style="ellipse;html=1;whiteSpace=wrap;" parent="Dm8r0YIzHr2bbyU3Pss4-1" vertex="1">
                    <mxGeometry x="237" y="168" width="120" height="40" as="geometry"/>
                </mxCell>
                <mxCell id="22" value="編輯推薦備課檔案" style="ellipse;html=1;whiteSpace=wrap;" parent="Dm8r0YIzHr2bbyU3Pss4-1" vertex="1">
                    <mxGeometry x="237" y="231" width="120" height="40" as="geometry"/>
                </mxCell>
                <mxCell id="26" value="&amp;lt;&amp;lt;include&amp;gt;&amp;gt;" style="endArrow=open;startArrow=none;endFill=0;startFill=0;endSize=8;html=1;verticalAlign=bottom;dashed=1;labelBackgroundColor=none;rounded=0;exitX=1;exitY=0.5;exitDx=0;exitDy=0;entryX=0;entryY=0.5;entryDx=0;entryDy=0;" parent="Dm8r0YIzHr2bbyU3Pss4-1" source="18" target="22" edge="1">
                    <mxGeometry width="160" relative="1" as="geometry">
                        <mxPoint x="110" y="249" as="sourcePoint"/>
                        <mxPoint x="143" y="209" as="targetPoint"/>
                    </mxGeometry>
                </mxCell>
                <mxCell id="29" value="&amp;lt;&amp;lt;include&amp;gt;&amp;gt;" style="endArrow=open;startArrow=none;endFill=0;startFill=0;endSize=8;html=1;verticalAlign=bottom;dashed=1;labelBackgroundColor=none;rounded=0;exitX=1;exitY=0.5;exitDx=0;exitDy=0;entryX=0;entryY=0.5;entryDx=0;entryDy=0;" parent="Dm8r0YIzHr2bbyU3Pss4-1" source="18" target="20" edge="1">
                    <mxGeometry width="160" relative="1" as="geometry">
                        <mxPoint x="88" y="271" as="sourcePoint"/>
                        <mxPoint x="121" y="231" as="targetPoint"/>
                    </mxGeometry>
                </mxCell>
                <mxCell id="31" value="查看備課檔案" style="ellipse;html=1;whiteSpace=wrap;" parent="Dm8r0YIzHr2bbyU3Pss4-1" vertex="1">
                    <mxGeometry x="34" y="392" width="120" height="40" as="geometry"/>
                </mxCell>
                <mxCell id="23" value="設計評量" style="ellipse;html=1;whiteSpace=wrap;" parent="Dm8r0YIzHr2bbyU3Pss4-1" vertex="1">
                    <mxGeometry x="418" y="439" width="120" height="40" as="geometry"/>
                </mxCell>
                <mxCell id="24" value="設計課前評量" style="ellipse;html=1;whiteSpace=wrap;" parent="Dm8r0YIzHr2bbyU3Pss4-1" vertex="1">
                    <mxGeometry x="331" y="560" width="120" height="40" as="geometry"/>
                </mxCell>
                <mxCell id="25" value="設計課後評量" style="ellipse;html=1;whiteSpace=wrap;" parent="Dm8r0YIzHr2bbyU3Pss4-1" vertex="1">
                    <mxGeometry x="474" y="560" width="120" height="40" as="geometry"/>
                </mxCell>
                <mxCell id="35" value="Generalization" style="endArrow=block;html=1;rounded=0;align=center;verticalAlign=bottom;endFill=0;labelBackgroundColor=none;endSize=8;entryX=0.5;entryY=1;entryDx=0;entryDy=0;exitX=0.5;exitY=0;exitDx=0;exitDy=0;" parent="Dm8r0YIzHr2bbyU3Pss4-1" source="25" target="23" edge="1">
                    <mxGeometry relative="1" as="geometry">
                        <mxPoint x="264" y="484" as="sourcePoint"/>
                        <mxPoint x="141.96000000000004" y="466" as="targetPoint"/>
                        <Array as="points"/>
                    </mxGeometry>
                </mxCell>
                <mxCell id="36" value="" style="resizable=0;html=1;align=center;verticalAlign=top;labelBackgroundColor=none;" parent="35" connectable="0" vertex="1">
                    <mxGeometry relative="1" as="geometry"/>
                </mxCell>
                <mxCell id="37" value="Generalization" style="endArrow=block;html=1;rounded=0;align=center;verticalAlign=bottom;endFill=0;labelBackgroundColor=none;endSize=8;entryX=0.5;entryY=1;entryDx=0;entryDy=0;exitX=0.5;exitY=0;exitDx=0;exitDy=0;" parent="Dm8r0YIzHr2bbyU3Pss4-1" source="24" target="23" edge="1">
                    <mxGeometry relative="1" as="geometry">
                        <mxPoint x="281" y="505" as="sourcePoint"/>
                        <mxPoint x="161.96000000000004" y="459" as="targetPoint"/>
                        <Array as="points"/>
                    </mxGeometry>
                </mxCell>
                <mxCell id="38" value="" style="resizable=0;html=1;align=center;verticalAlign=top;labelBackgroundColor=none;" parent="37" connectable="0" vertex="1">
                    <mxGeometry relative="1" as="geometry"/>
                </mxCell>
                <mxCell id="ryS176TaE5lFz0hFWM8S-42" value="上傳評量" style="ellipse;html=1;whiteSpace=wrap;" parent="Dm8r0YIzHr2bbyU3Pss4-1" vertex="1">
                    <mxGeometry x="413" y="289" width="120" height="40" as="geometry"/>
                </mxCell>
                <mxCell id="ryS176TaE5lFz0hFWM8S-53" value="設計雲端教室內部" style="ellipse;html=1;whiteSpace=wrap;" parent="Dm8r0YIzHr2bbyU3Pss4-1" vertex="1">
                    <mxGeometry x="220" y="297" width="120" height="40" as="geometry"/>
                </mxCell>
                <mxCell id="ryS176TaE5lFz0hFWM8S-56" value="&amp;lt;&amp;lt;include&amp;gt;&amp;gt;" style="endArrow=open;startArrow=none;endFill=0;startFill=0;endSize=8;html=1;verticalAlign=bottom;dashed=1;labelBackgroundColor=none;rounded=0;exitX=0.5;exitY=0;exitDx=0;exitDy=0;entryX=0;entryY=1;entryDx=0;entryDy=0;" parent="Dm8r0YIzHr2bbyU3Pss4-1" source="14" target="ryS176TaE5lFz0hFWM8S-53" edge="1">
                    <mxGeometry width="160" relative="1" as="geometry">
                        <mxPoint x="153" y="360" as="sourcePoint"/>
                        <mxPoint x="276" y="423" as="targetPoint"/>
                        <mxPoint as="offset"/>
                    </mxGeometry>
                </mxCell>
                <mxCell id="ryS176TaE5lFz0hFWM8S-60" value="" style="endArrow=none;startArrow=none;endFill=0;startFill=0;endSize=8;html=1;verticalAlign=bottom;labelBackgroundColor=none;strokeWidth=3;rounded=0;entryX=0;entryY=0;entryDx=0;entryDy=0;" parent="Dm8r0YIzHr2bbyU3Pss4-1" target="14" edge="1">
                    <mxGeometry width="160" relative="1" as="geometry">
                        <mxPoint x="-99" y="77" as="sourcePoint"/>
                        <mxPoint x="63" y="275" as="targetPoint"/>
                    </mxGeometry>
                </mxCell>
                <mxCell id="ryS176TaE5lFz0hFWM8S-65" value="時機:上傳評量時" style="shape=note2;boundedLbl=1;whiteSpace=wrap;html=1;size=25;verticalAlign=top;align=center;" parent="Dm8r0YIzHr2bbyU3Pss4-1" vertex="1">
                    <mxGeometry x="378" y="362" width="160" height="60" as="geometry"/>
                </mxCell>
                <mxCell id="ryS176TaE5lFz0hFWM8S-66" value="條件{是否有現有評量資料}" style="resizeWidth=1;part=1;strokeColor=none;fillColor=none;align=left;spacingLeft=5;" parent="ryS176TaE5lFz0hFWM8S-65" vertex="1">
                    <mxGeometry width="160" height="25" relative="1" as="geometry"/>
                </mxCell>
                <mxCell id="ryS176TaE5lFz0hFWM8S-67" value="" style="endArrow=none;startArrow=none;endFill=0;startFill=0;endSize=8;html=1;verticalAlign=bottom;dashed=1;labelBackgroundColor=none;rounded=0;exitX=0.5;exitY=0;exitDx=0;exitDy=0;" parent="Dm8r0YIzHr2bbyU3Pss4-1" source="23" edge="1">
                    <mxGeometry width="160" relative="1" as="geometry">
                        <mxPoint x="452" y="343" as="sourcePoint"/>
                        <mxPoint x="484" y="429" as="targetPoint"/>
                        <mxPoint as="offset"/>
                    </mxGeometry>
                </mxCell>
                <mxCell id="ryS176TaE5lFz0hFWM8S-64" value="&amp;lt;&amp;lt;extend&amp;gt;&amp;gt;" style="endArrow=open;startArrow=none;endFill=0;startFill=0;endSize=8;html=1;verticalAlign=bottom;dashed=1;labelBackgroundColor=none;rounded=0;exitX=0.5;exitY=0;exitDx=0;exitDy=0;entryX=0.358;entryY=1.05;entryDx=0;entryDy=0;entryPerimeter=0;" parent="Dm8r0YIzHr2bbyU3Pss4-1" source="ryS176TaE5lFz0hFWM8S-66" target="ryS176TaE5lFz0hFWM8S-42" edge="1">
                    <mxGeometry width="160" relative="1" as="geometry">
                        <mxPoint x="-142" y="627" as="sourcePoint"/>
                        <mxPoint x="200.96000000000004" y="323" as="targetPoint"/>
                        <mxPoint as="offset"/>
                    </mxGeometry>
                </mxCell>
                <mxCell id="ryS176TaE5lFz0hFWM8S-68" value="&amp;lt;&amp;lt;include&amp;gt;&amp;gt;" style="endArrow=open;startArrow=none;endFill=0;startFill=0;endSize=8;html=1;verticalAlign=bottom;dashed=1;labelBackgroundColor=none;rounded=0;exitX=1;exitY=0.5;exitDx=0;exitDy=0;entryX=0;entryY=0.5;entryDx=0;entryDy=0;" parent="Dm8r0YIzHr2bbyU3Pss4-1" source="ryS176TaE5lFz0hFWM8S-53" target="ryS176TaE5lFz0hFWM8S-42" edge="1">
                    <mxGeometry width="160" relative="1" as="geometry">
                        <mxPoint x="153" y="360" as="sourcePoint"/>
                        <mxPoint x="276" y="423" as="targetPoint"/>
                        <mxPoint as="offset"/>
                    </mxGeometry>
                </mxCell>
                <mxCell id="ryS176TaE5lFz0hFWM8S-69" value="查看評量結果" style="ellipse;html=1;whiteSpace=wrap;" parent="Dm8r0YIzHr2bbyU3Pss4-1" vertex="1">
                    <mxGeometry x="34" y="546" width="120" height="40" as="geometry"/>
                </mxCell>
                <mxCell id="ryS176TaE5lFz0hFWM8S-71" value="編輯備課檔案" style="ellipse;html=1;whiteSpace=wrap;" parent="Dm8r0YIzHr2bbyU3Pss4-1" vertex="1">
                    <mxGeometry x="34" y="479" width="120" height="40" as="geometry"/>
                </mxCell>
                <mxCell id="Dm8r0YIzHr2bbyU3Pss4-9" value="培養學生團體思考" style="ellipse;html=1;whiteSpace=wrap;" parent="1" vertex="1">
                    <mxGeometry x="773" y="-130" width="120" height="40" as="geometry"/>
                </mxCell>
                <mxCell id="Dm8r0YIzHr2bbyU3Pss4-3" value="雲端課程內含小組&lt;span style=&quot;color: rgba(0, 0, 0, 0); font-family: monospace; font-size: 0px; text-align: start; text-wrap: nowrap;&quot;&gt;%3CmxGraphModel%3E%3Croot%3E%3CmxCell%20id%3D%220%22%2F%3E%3CmxCell%20id%3D%221%22%20parent%3D%220%22%2F%3E%3CmxCell%20id%3D%222%22%20value%3D%22%E9%9B%B2%E7%AB%AF%E7%B6%AD%E8%AD%B7%E8%B3%87%E6%96%99%E7%AE%A1%E7%90%86%22%20style%3D%22ellipse%3Bhtml%3D1%3BwhiteSpace%3Dwrap%3B%22%20vertex%3D%221%22%20parent%3D%221%22%3E%3CmxGeometry%20x%3D%22220%22%20y%3D%22-330%22%20width%3D%22120%22%20height%3D%2240%22%20as%3D%22geometry%22%2F%3E%3C%2FmxCell%3E%3C%2Froot%3E%3C%2FmxGraphModel%3E&lt;/span&gt;" style="ellipse;html=1;whiteSpace=wrap;" parent="1" vertex="1">
                    <mxGeometry x="773" y="-190" width="120" height="40" as="geometry"/>
                </mxCell>
                <mxCell id="Dm8r0YIzHr2bbyU3Pss4-5" value="AI分析教師評量" style="ellipse;html=1;whiteSpace=wrap;" parent="1" vertex="1">
                    <mxGeometry x="773" y="-250" width="120" height="40" as="geometry"/>
                </mxCell>
                <mxCell id="Dm8r0YIzHr2bbyU3Pss4-4" value="AI分析內文(課文)並產生例子" style="ellipse;html=1;whiteSpace=wrap;" parent="1" vertex="1">
                    <mxGeometry x="783" y="-320" width="120" height="40" as="geometry"/>
                </mxCell>
                <mxCell id="Dm8r0YIzHr2bbyU3Pss4-2" value="雲端維護資料管理" style="ellipse;html=1;whiteSpace=wrap;" parent="1" vertex="1">
                    <mxGeometry x="783" y="-80" width="120" height="40" as="geometry"/>
                </mxCell>
                <mxCell id="8fR5_x-3oUHtHIp3af_6-25" value="" style="endArrow=none;startArrow=none;endFill=0;startFill=0;endSize=8;html=1;verticalAlign=bottom;labelBackgroundColor=none;strokeWidth=3;rounded=0;entryX=0;entryY=0.5;entryDx=0;entryDy=0;" parent="1" target="18" edge="1">
                    <mxGeometry width="160" relative="1" as="geometry">
                        <mxPoint x="70" y="-310" as="sourcePoint"/>
                        <mxPoint x="230" y="-310" as="targetPoint"/>
                    </mxGeometry>
                </mxCell>
                <mxCell id="8fR5_x-3oUHtHIp3af_6-28" value="學生" style="shape=umlActor;verticalLabelPosition=bottom;verticalAlign=top;html=1;" parent="1" vertex="1">
                    <mxGeometry x="30" y="-60" width="30" height="60" as="geometry"/>
                </mxCell>
                <mxCell id="6" value="" style="endArrow=none;startArrow=none;endFill=0;startFill=0;endSize=8;html=1;verticalAlign=bottom;labelBackgroundColor=none;strokeWidth=3;rounded=0;entryX=0;entryY=0.5;entryDx=0;entryDy=0;" parent="1" target="2" edge="1">
                    <mxGeometry width="160" relative="1" as="geometry">
                        <mxPoint x="77" y="-319" as="sourcePoint"/>
                        <mxPoint x="231" y="-190" as="targetPoint"/>
                    </mxGeometry>
                </mxCell>
                <mxCell id="7" value="" style="endArrow=none;startArrow=none;endFill=0;startFill=0;endSize=8;html=1;verticalAlign=bottom;labelBackgroundColor=none;strokeWidth=3;rounded=0;entryX=0;entryY=0.5;entryDx=0;entryDy=0;" parent="1" target="8fR5_x-3oUHtHIp3af_6-4" edge="1">
                    <mxGeometry width="160" relative="1" as="geometry">
                        <mxPoint x="77" y="-319" as="sourcePoint"/>
                        <mxPoint x="242" y="-145" as="targetPoint"/>
                    </mxGeometry>
                </mxCell>
                <mxCell id="8fR5_x-3oUHtHIp3af_6-2" value="觀察學生上課情形" style="ellipse;html=1;whiteSpace=wrap;" parent="1" vertex="1">
                    <mxGeometry x="827" y="-22" width="120" height="40" as="geometry"/>
                </mxCell>
                <mxCell id="8fR5_x-3oUHtHIp3af_6-20" value="分析學生上課情形" style="ellipse;html=1;whiteSpace=wrap;" parent="1" vertex="1">
                    <mxGeometry x="1037" y="-22" width="120" height="40" as="geometry"/>
                </mxCell>
                <mxCell id="8fR5_x-3oUHtHIp3af_6-21" value="改善建議" style="ellipse;html=1;whiteSpace=wrap;" parent="1" vertex="1">
                    <mxGeometry x="1047" y="78" width="120" height="40" as="geometry"/>
                </mxCell>
                <mxCell id="8fR5_x-3oUHtHIp3af_6-24" value="&amp;lt;&amp;lt;includ&amp;gt;&amp;gt;" style="endArrow=open;startArrow=none;endFill=0;startFill=0;endSize=8;html=1;verticalAlign=bottom;dashed=1;labelBackgroundColor=none;rounded=0;exitX=0.075;exitY=0.65;exitDx=0;exitDy=0;exitPerimeter=0;entryX=0.975;entryY=0.325;entryDx=0;entryDy=0;entryPerimeter=0;" parent="1" source="8fR5_x-3oUHtHIp3af_6-20" target="8fR5_x-3oUHtHIp3af_6-2" edge="1">
                    <mxGeometry width="160" relative="1" as="geometry">
                        <mxPoint x="646" y="-12" as="sourcePoint"/>
                        <mxPoint x="326" y="-105" as="targetPoint"/>
                    </mxGeometry>
                </mxCell>
                <mxCell id="8fR5_x-3oUHtHIp3af_6-23" value="&amp;lt;&amp;lt;extend&amp;gt;&amp;gt;" style="endArrow=open;startArrow=none;endFill=0;startFill=0;endSize=8;html=1;verticalAlign=bottom;dashed=1;labelBackgroundColor=none;rounded=0;entryX=0.558;entryY=1.05;entryDx=0;entryDy=0;exitX=0.5;exitY=0;exitDx=0;exitDy=0;entryPerimeter=0;" parent="1" source="8fR5_x-3oUHtHIp3af_6-21" target="8fR5_x-3oUHtHIp3af_6-20" edge="1">
                    <mxGeometry x="-0.0044" y="-22" width="160" relative="1" as="geometry">
                        <mxPoint x="466" y="-55" as="sourcePoint"/>
                        <mxPoint x="569" y="-22" as="targetPoint"/>
                        <mxPoint as="offset"/>
                    </mxGeometry>
                </mxCell>
                <mxCell id="34" value="" style="endArrow=none;startArrow=none;endFill=0;startFill=0;endSize=8;html=1;verticalAlign=bottom;labelBackgroundColor=none;strokeWidth=3;rounded=0;entryX=0;entryY=0.5;entryDx=0;entryDy=0;" parent="1" target="31" edge="1">
                    <mxGeometry width="160" relative="1" as="geometry">
                        <mxPoint x="77" y="-308" as="sourcePoint"/>
                        <mxPoint x="221" y="-55" as="targetPoint"/>
                    </mxGeometry>
                </mxCell>
                <mxCell id="ryS176TaE5lFz0hFWM8S-70" value="" style="endArrow=none;startArrow=none;endFill=0;startFill=0;endSize=8;html=1;verticalAlign=bottom;labelBackgroundColor=none;strokeWidth=3;rounded=0;entryX=0.017;entryY=0.675;entryDx=0;entryDy=0;entryPerimeter=0;" parent="1" target="ryS176TaE5lFz0hFWM8S-69" edge="1">
                    <mxGeometry width="160" relative="1" as="geometry">
                        <mxPoint x="71" y="-308" as="sourcePoint"/>
                        <mxPoint x="204" y="38" as="targetPoint"/>
                    </mxGeometry>
                </mxCell>
                <mxCell id="ryS176TaE5lFz0hFWM8S-72" value="" style="endArrow=none;startArrow=none;endFill=0;startFill=0;endSize=8;html=1;verticalAlign=bottom;labelBackgroundColor=none;strokeWidth=3;rounded=0;entryX=0;entryY=0.5;entryDx=0;entryDy=0;" parent="1" target="ryS176TaE5lFz0hFWM8S-71" edge="1">
                    <mxGeometry width="160" relative="1" as="geometry">
                        <mxPoint x="77" y="-308" as="sourcePoint"/>
                        <mxPoint x="223.03999999999996" y="104" as="targetPoint"/>
                    </mxGeometry>
                </mxCell>
                <mxCell id="21" value="&lt;div&gt;查看課前評量成果分析&lt;/div&gt;" style="ellipse;html=1;whiteSpace=wrap;" parent="1" vertex="1">
                    <mxGeometry x="924" y="-230" width="120" height="40" as="geometry"/>
                </mxCell>
                <mxCell id="ryS176TaE5lFz0hFWM8S-47" value="時機:&lt;div&gt;查看課前評量成果分析&lt;/div&gt;時" style="shape=note2;boundedLbl=1;whiteSpace=wrap;html=1;size=25;verticalAlign=top;align=center;" parent="1" vertex="1">
                    <mxGeometry x="1078" y="-197" width="198" height="76" as="geometry"/>
                </mxCell>
                <mxCell id="ryS176TaE5lFz0hFWM8S-48" value="條件{是否有課前評量分析結果}" style="resizeWidth=1;part=1;strokeColor=none;fillColor=none;align=left;spacingLeft=5;" parent="ryS176TaE5lFz0hFWM8S-47" vertex="1">
                    <mxGeometry width="198" height="25" relative="1" as="geometry"/>
                </mxCell>
                <mxCell id="ryS176TaE5lFz0hFWM8S-57" value="抓取雲端教室課前評量分析結果" style="ellipse;html=1;whiteSpace=wrap;" parent="1" vertex="1">
                    <mxGeometry x="1117" y="-102" width="120" height="40" as="geometry"/>
                </mxCell>
                <mxCell id="ryS176TaE5lFz0hFWM8S-46" value="&amp;lt;&amp;lt;extend&amp;gt;&amp;gt;" style="endArrow=open;startArrow=none;endFill=0;startFill=0;endSize=8;html=1;verticalAlign=bottom;dashed=1;labelBackgroundColor=none;rounded=0;exitX=0.5;exitY=0;exitDx=0;exitDy=0;entryX=1;entryY=0.5;entryDx=0;entryDy=0;" parent="1" source="ryS176TaE5lFz0hFWM8S-48" target="21" edge="1">
                    <mxGeometry width="160" relative="1" as="geometry">
                        <mxPoint x="-143" y="177" as="sourcePoint"/>
                        <mxPoint x="258" y="-213" as="targetPoint"/>
                        <mxPoint as="offset"/>
                    </mxGeometry>
                </mxCell>
                <mxCell id="ryS176TaE5lFz0hFWM8S-58" value="" style="endArrow=none;startArrow=none;endFill=0;startFill=0;endSize=8;html=1;verticalAlign=bottom;dashed=1;labelBackgroundColor=none;rounded=0;entryX=0.5;entryY=1;entryDx=0;entryDy=0;entryPerimeter=0;exitX=0.5;exitY=0;exitDx=0;exitDy=0;" parent="1" source="ryS176TaE5lFz0hFWM8S-57" target="ryS176TaE5lFz0hFWM8S-47" edge="1">
                    <mxGeometry width="160" relative="1" as="geometry">
                        <mxPoint x="649" y="-121" as="sourcePoint"/>
                        <mxPoint x="612" y="-46" as="targetPoint"/>
                        <mxPoint as="offset"/>
                    </mxGeometry>
                </mxCell>
            </root>
        </mxGraphModel>
    </diagram>
    <diagram id="Hlj2Er0pYJk4DCY3eQD_" name="第2頁">
        <mxGraphModel dx="816" dy="306" grid="1" gridSize="10" guides="1" tooltips="1" connect="1" arrows="1" fold="1" page="1" pageScale="1" pageWidth="827" pageHeight="1169" math="0" shadow="0">
            <root>
                <mxCell id="0"/>
                <mxCell id="1" parent="0"/>
            </root>
        </mxGraphModel>
    </diagram>
</mxfile>